<svg width="276" height="278" viewBox="0 0 276 278" fill="none" xmlns="http://www.w3.org/2000/svg">
    <path fill-rule="evenodd" clip-rule="evenodd"
          d="M124.829 0.261357C123.454 0.501357 118.954 1.19736 114.829 1.80736C110.704 2.41836 102.829 4.25136 97.329 5.88136C46.321 20.9994 8.10705 65.9614 0.806049 119.45C-0.760951 130.929 0.0640492 156.078 2.35405 166.691C6.02405 183.693 14.088 202.876 23.301 216.517C27.98 223.447 42.557 240.691 43.734 240.691C44.14 240.691 46.4671 242.604 48.9071 244.941C54.6651 250.458 66.147 257.992 76.829 263.264C154.038 301.366 247.59 259.97 270.71 177.473C274.62 163.521 275.83 154.389 275.825 138.869C275.816 110.581 267.863 84.4454 252.064 60.7804C243.972 48.6614 226.739 31.6364 214.104 23.2804C198.776 13.1434 178.711 4.93336 161.329 1.68536C155.068 0.515357 129.166 -0.494643 124.829 0.261357ZM140.173 5.80236C141.724 6.50936 143.212 6.57636 144.263 5.98836C146.326 4.83436 157.458 6.08236 168.649 8.72336C213.161 19.2274 249.55 52.8074 264.343 97.0314C269.24 111.671 272.785 135.047 269.629 131.891C268.228 130.49 266.829 130.32 266.829 131.551C266.829 132.025 267.884 133.966 269.173 135.866C271.316 139.024 271.419 139.71 270.367 143.852C269.011 149.193 266.532 152.562 259.611 158.47C247.506 168.802 225.926 175.879 191.611 180.77C172.914 183.435 134.907 184.421 114.329 182.775C96.192 181.324 95.189 181.102 94.38 178.356C93.006 173.69 92.542 122.964 93.742 108.614C98.442 52.4334 113.2 12.9024 131.872 6.47736C137.653 4.48836 137.344 4.51336 140.173 5.80236ZM119.878 11.4554C106.941 24.8954 97.693 51.5114 92.176 91.1914C90.714 101.701 90.364 110.991 90.348 139.691C90.338 159.216 90.668 176.4 91.082 177.879C91.82 180.511 91.758 180.555 88.082 180.017C77.397 178.451 55.4581 173.315 46.1421 170.198C24.9651 163.111 11.219 153.589 6.00805 142.396C4.07605 138.244 3.92205 137.059 4.86405 133.562C5.46205 131.341 5.68805 128.324 5.36705 126.857C4.54405 123.094 7.28505 108.416 10.957 96.9324C25.352 51.9114 63.5681 17.5454 110.112 7.76936C115.181 6.70436 120.701 5.80136 122.378 5.76236L125.427 5.69136L119.878 11.4554ZM148.829 7.79936C148.829 8.88736 155.028 12.8254 155.693 12.1604C155.944 11.9094 155.374 10.8454 154.425 9.79736C152.507 7.67836 148.829 6.36536 148.829 7.79936ZM157.829 16.7074C157.829 17.2314 159.166 19.1294 160.8 20.9254C163.939 24.3774 164.907 23.2664 162.269 19.2404C160.608 16.7054 157.829 15.1194 157.829 16.7074ZM165.851 29.9414C165.863 30.6294 166.843 33.2164 168.029 35.6914C169.71 39.2014 170.264 39.7444 170.547 38.1614C170.983 35.7264 168.211 28.6914 166.816 28.6914C166.273 28.6914 165.839 29.2544 165.851 29.9414ZM171.829 46.3254C171.829 49.0124 174.081 55.6914 174.987 55.6914C176.153 55.6914 176.039 53.1244 174.671 48.5574C173.497 44.6414 171.829 43.3314 171.829 46.3254ZM176.357 65.9414C177.078 70.2914 178.447 73.6914 179.478 73.6914C180.086 73.6914 179.046 65.4194 178.142 63.0634C176.927 59.8974 175.687 61.8964 176.357 65.9414ZM179.163 83.8644C179.937 90.3974 181.835 92.7424 181.815 87.1414C181.798 82.1274 180.886 78.6914 179.573 78.6914C178.929 78.6914 178.777 80.6064 179.163 83.8644ZM118.829 92.1914C118.829 93.7764 125.029 94.2804 129.568 93.0644C133.532 92.0014 130.883 90.6914 124.77 90.6914C120.156 90.6914 118.829 91.0264 118.829 92.1914ZM135.829 92.1914C135.829 93.3584 137.162 93.6914 141.829 93.6914C145.129 93.6914 147.829 93.2894 147.829 92.7984C147.829 91.4394 145.137 90.6914 140.247 90.6914C136.987 90.6914 135.829 91.0844 135.829 92.1914ZM100.829 93.3204C100.829 94.7264 101.684 94.8544 107.079 94.2524C116.134 93.2414 116.709 91.6914 108.029 91.6914C102.042 91.6914 100.829 91.9654 100.829 93.3204ZM154.829 92.5844C154.829 93.9804 157.558 94.6914 162.911 94.6914C168.42 94.6914 169.49 93.2734 164.704 92.3164C160.157 91.4074 154.829 91.5514 154.829 92.5844ZM78.579 94.3804C77.616 94.6324 76.829 95.3174 76.829 95.9034C76.829 97.2834 88.6371 96.2834 90.1451 94.7754C90.9241 93.9964 89.695 93.7244 85.779 93.8074C82.782 93.8714 79.542 94.1294 78.579 94.3804ZM172.829 94.4154C172.829 95.6014 178.442 96.6644 184.779 96.6804C187.874 96.6884 188.911 96.3734 188.184 95.6464C186.75 94.2124 172.829 93.0964 172.829 94.4154ZM62.579 96.9174C59.662 97.5254 57.829 98.4444 57.829 99.2994C57.829 100.954 57.838 100.954 64.766 99.3374C67.757 98.6394 70.382 97.5334 70.599 96.8804C71.054 95.5154 69.269 95.5234 62.579 96.9174ZM193.375 97.5594C194.714 98.9984 205.492 101.017 206.968 100.105C208.837 98.9504 205.505 97.7284 198.654 97.0554C193.992 96.5974 192.604 96.7294 193.375 97.5594ZM45.5181 101.119C39.8631 102.64 37.132 104.691 40.763 104.691C44.677 104.691 50.829 102.455 50.829 101.033C50.829 100.295 50.717 99.7214 50.579 99.7584C50.441 99.7964 48.1641 100.408 45.5181 101.119ZM211.829 100.716C211.829 102.035 216.024 103.619 221.509 104.371C227.859 105.241 226.881 103.25 220.013 101.323C213.235 99.4214 211.829 99.3164 211.829 100.716ZM181.204 105.816C181.548 107.535 181.829 109.56 181.829 110.316C181.829 111.072 182.279 111.691 182.829 111.691C183.379 111.691 183.829 109.666 183.829 107.191C183.829 103.704 183.463 102.691 182.204 102.691C180.917 102.691 180.709 103.342 181.204 105.816ZM229.829 105.926C229.829 107.546 238.935 111.047 241.53 110.426C242.824 110.116 242.065 109.42 238.829 107.95C231.927 104.813 229.829 104.342 229.829 105.926ZM25.644 108.726C21.433 110.95 19.969 112.691 22.31 112.691C24.26 112.691 31.453 109.108 32.32 107.705C33.338 106.059 29.616 106.628 25.644 108.726ZM245.829 112.609C245.829 113.849 252.157 117.691 254.197 117.691C256.93 117.691 256.034 116.175 251.943 113.875C247.783 111.537 245.829 111.133 245.829 112.609ZM11.418 118.768C8.73605 121.955 8.15205 123.691 9.76105 123.691C10.586 123.691 13.157 120.515 15.224 116.941C16.659 114.46 13.948 115.761 11.418 118.768ZM182.511 117.343C181.661 118.192 181.642 125.392 182.481 128.526C183.419 132.028 184.798 129.15 184.798 123.691C184.798 119.089 183.73 116.124 182.511 117.343ZM258.829 119.947C258.829 121.631 264.572 127.281 265.421 126.433C266.216 125.638 263.595 121.916 260.921 120.043C259.196 118.835 258.829 118.818 258.829 119.947ZM182.379 138.275C181.602 142.417 182.562 147.974 183.91 147.141C185.091 146.411 185.119 134.691 183.94 134.691C183.452 134.691 182.749 136.304 182.379 138.275ZM16.107 159.482C27.761 168.389 46.8261 175.666 71.7401 180.716C79.7641 182.343 87.5391 183.678 89.0181 183.682C91.4681 183.69 91.763 184.113 92.342 188.441C95.845 214.64 101.812 236.788 109.382 251.691C113.033 258.878 120.566 267.952 125.242 270.796L128.269 272.637L124.299 272.085C105.632 269.489 92.616 265.64 78.329 258.49C46.872 242.749 24.002 216.525 11.951 182.379C8.51205 172.633 4.82905 155.949 4.82905 150.112V146.348L7.85705 150.92C9.52205 153.434 13.235 157.287 16.107 159.482ZM182.512 153.341C181.509 154.344 181.678 162.691 182.701 162.691C183.908 162.691 185.103 154.565 184.05 153.512C183.58 153.042 182.888 152.965 182.512 153.341ZM270.245 156.941C266.039 186.353 252.953 212.726 232.393 233.224C209.39 256.158 184.198 267.977 149.329 272.192L144.329 272.797L147.829 270.59C152.303 267.77 150.043 266.765 144.994 269.329C142.978 270.353 141.07 271.541 140.753 271.968C140.437 272.395 137.814 272.238 134.924 271.618C129.694 270.496 123.01 265.646 117.305 258.831C111.449 251.838 104.287 233.741 100.427 216.191C97.8561 204.498 94.734 185.479 95.29 184.905C95.443 184.747 99.789 185.169 104.949 185.842C119.683 187.764 169.354 187.463 185.829 185.352C229.855 179.71 255.387 170.718 266.966 156.776C268.816 154.549 270.447 152.719 270.591 152.709C270.735 152.699 270.579 154.603 270.245 156.941ZM180.829 173.391C180.829 180.04 182.268 179.48 183.273 172.441C183.834 168.513 183.681 167.691 182.39 167.691C181.158 167.691 180.829 168.892 180.829 173.391ZM177.786 195.541C177.113 199.308 176.794 203.021 177.076 203.791C177.842 205.876 179.711 200.549 180.465 194.13C181.407 186.118 179.269 187.243 177.786 195.541ZM174.469 213.623C173.567 216.61 172.843 219.985 172.861 221.123C172.892 223.129 172.936 223.134 174.32 221.306C175.867 219.262 177.324 211.627 176.573 209.504C176.317 208.782 175.37 210.635 174.469 213.623ZM169.264 231.941C168.314 234.828 167.33 237.754 167.076 238.441C166.823 239.129 167.256 239.691 168.039 239.691C169.317 239.691 172.829 231.01 172.829 227.853C172.829 224.898 170.823 227.199 169.264 231.941ZM162.289 248.77C160.873 251.564 159.89 254.374 160.104 255.016C160.531 256.297 165.111 249.534 166.25 245.941C167.596 241.699 164.895 243.628 162.289 248.77ZM154.38 261.035C150.65 265.925 151.261 267.634 155.329 263.691C158.699 260.425 159.861 257.691 157.88 257.691C157.358 257.691 155.783 259.196 154.38 261.035Z"
          fill="#FFEDD5"/>
</svg>
